<?xml version="1.0" encoding="UTF-8" standalone="no"?>
<svg className="absolute inset-x-0 top-0 w-full max-h-full -z-10" preserveAspectRatio="xMidYMin slice" width="2000"
  height="1424.790" viewBox="0 0 2000 1424.790" xmlns="http://www.w3.org/2000/svg">
  <path fill="#353132"
    d="m2000 1424.79-47.78-.01-324.98-324.98c-2.66-2.66-6.26-4.15-10.02-4.15H1475.37c-3.76 0-7.36-1.49-10.02-4.15l-18.56-18.56c-2.66-2.66-6.27-4.15-10.03-4.15l-338.69.3c-3.76.01-7.37-1.49-10.04-4.15L982 958.9c-2.66-2.66-6.26-4.15-10.02-4.15H894.95h-44.4c-3.76 0-7.37-1.49-10.02-4.15l-59.4-59.41-58.5-58.5c-2.66-2.66-6.26-4.15-10.02-4.15H682.55c-3.75 0-7.35-1.49-10.01-4.14L539.51 691.77c-2.66-2.65-6.26-4.13-10.01-4.13H352.77c-3.8 0-7.45 1.53-10.11 4.24L.11 1035.43V949.32L400 547.38c2.66-2.71 6.31-4.24 10.11-4.24h34.4c4.21 0 6.32-5.09 3.34-8.07l-13.23-13.23c-2.66-2.66-4.15-6.26-4.15-10.02l.01-144.32c0-5.22-4.23-9.45-9.45-9.45H287.6h-3.25c-3.76 0-7.36-1.49-10.02-4.15L174.27 253.83l-.02.02L0 79.6V0H93.24L236.57 143.32c2.66 2.66 6.26 4.15 10.02 4.15H429.13c3.76 0 7.36 1.49 10.02 4.15L555.94 268.41c2.54 2.14 5.77 3.32 9.11 3.32H665.43c3.76 0 7.37 1.49 10.02 4.15l71.47 71.47c2.66 2.66 6.26 4.15 10.02 4.15h91.53c3.76 0 7.36-1.49 10.02-4.15L962.02 243.82c2.66-2.66 6.26-4.15 10.02-4.15h143.15c3.76 0 7.37-1.49 10.02-4.15l83.74-83.74c2.66-2.66 6.26-4.15 10.02-4.15h151.33c.55 0 1.09.03 1.63.09h223.87c15.39 0 27.88 12.5 27.88 27.88v95.64c0 7.3-2.87 14.31-7.98 19.52l-66.41 67.78c-4.7 4.8-7.34 11.25-7.34 17.97v342.31l101.63 104.45c2.65 2.66 4.14 6.26 4.14 10.02v195.02c0 3.76 1.49 7.36 4.15 10.02l60.51 60.51 287.41 287.42Zm-428.61-339.01h30.35c4.21 0 6.32-5.09 3.34-8.07l-4.78-4.77c-2.66-2.66-6.26-4.15-10.02-4.15h-30.36c-4.21 0-6.32 5.09-3.34 8.07l4.78 4.77c2.66 2.66 6.26 4.15 10.02 4.15Zm-118.79-26.86h146.19c5.22 0 9.45-4.23 9.45-9.45V849.65c0-3.76-1.49-7.36-4.14-10.01L1432.58 662.38c-2.65-2.66-4.14-6.26-4.14-10.01V446.05c0-3.74-1.48-7.33-4.11-9.98L1266.86 283.02c-2.66-2.68-6.28-4.19-10.06-4.19l-268.08.01c-3.76 0-7.36 1.49-10.02 4.15L801.59 460.1c-2.66 2.66-6.26 4.15-10.02 4.15l-274.01.01c-3.76 0-7.36 1.49-10.02 4.15l-4.21 4.21c-2.66 2.66-4.15 6.26-4.15 10.02V589.71c0 3.76 1.5 7.37 4.16 10.03L617.1 713.3c3.69 3.68 9.67 3.68 13.36-.01l14.8-14.8c2.66-2.66 6.26-4.15 10.02-4.15h65.52c3.76 0 7.36 1.49 10.02 4.15l73.98 73.99c2.66 2.66 6.26 4.15 10.02 4.15h21.29c3.76 0 7.36-1.49 10.02-4.15l20.47-20.47c2.66-2.66 6.26-4.15 10.02-4.15h180.6c3.76 0 7.36 1.49 10.02 4.15L1292.1 976.87c2.66 2.66 6.26 4.15 10.02 4.15h60.84c3.76 0 7.36 1.49 10.02 4.15l69.6 69.6c2.66 2.66 6.26 4.15 10.02 4.15Zm-31.25-.01c4.21 0 6.32-5.09 3.34-8.07l-55.8-55.81c-2.66-2.66-6.26-4.15-10.02-4.15h-60.84c-3.76 0-7.36-1.49-10.02-4.15L1063.15 761.88c-2.66-2.66-6.26-4.15-10.02-4.15H880.72c-3.76 0-7.37 1.49-10.02 4.15l-20.48 20.47c-2.66 2.66-6.26 4.15-10.02 4.15H824.67c-3.76 0-7.36 1.49-10.02 4.15l-10.02 10.02c-2.66 2.66-6.26 4.15-10.02 4.15H744.27c-3.76 0-7.36 1.49-10.02 4.15l-3.72 3.72c-3.69 3.69-3.69 9.67 0 13.36L844.79 940.32c2.66 2.66 6.26 4.15 10.02 4.15H976.23c3.76 0 7.36 1.49 10.02 4.15l106.04 106.04c2.66 2.66 6.26 4.15 10.02 4.15ZM716.57 808.77c2.42 0 4.84-.92 6.68-2.77l43.87-43.87c3.69-3.69 3.69-9.67 0-13.36l-40.4-40.4c-2.66-2.66-6.26-4.15-10.02-4.15H659.37c-3.76 0-7.36 1.49-10.02 4.15l-11.89 11.88c-3.69 3.69-3.69 9.67 0 13.37l72.43 72.39c1.85 1.84 4.26 2.77 6.68 2.76Zm43.1-13.82h30.85c3.76 0 7.36-1.49 10.02-4.15l.97-.97c1.85-1.85 1.85-4.84 0-6.68l-14.04-14.04c-3.69-3.69-9.67-3.69-13.36 0l-17.77 17.77c-2.98 2.98-.87 8.07 3.34 8.07Zm780.06-78.4V376.52c0-7.3 2.86-14.31 7.98-19.52l66.41-67.78c4.71-4.8 7.34-11.25 7.34-17.97v-95.64c0-14.19-11.48-25.66-25.66-25.66H1378.06c.81.53 1.56 1.14 2.26 1.84l83.07 83.07c2.66 2.66 4.15 6.26 4.15 10.02l-.01 391.72c0 3.76 1.49 7.36 4.15 10.02Zm-86.7-70.03c2.47.06 4.88-1.84 4.88-4.73V593.08c0-2.51-.99-4.91-2.77-6.68l-8.77-8.77c-2.98-2.98-8.07-.87-8.07 3.34v48.71c0 2.51 1 4.91 2.77 6.68l8.77 8.77c.93.93 2.07 1.36 3.19 1.39ZM449.79 498.97h30.07c5.22 0 9.45-4.23 9.45-9.45V472.65c0-3.76 1.49-7.36 4.15-10.02l64.38-64.38c2.66-2.66 4.15-6.26 4.15-10.02V362.2c0-5.22-4.23-9.45-9.45-9.45H507.43c-3.76 0-7.36 1.49-10.02 4.15l-52.91 52.91c-2.66 2.66-4.15 6.26-4.15 10.02l-.01 69.69c0 5.22 4.23 9.45 9.45 9.45Zm953.73-99.39c2.47.06 4.88-1.84 4.88-4.73v-28.56c0-3.76-1.49-7.37-4.15-10.02l-26.03-26.02c-2.66-2.66-6.26-4.15-10.02-4.15h-28.56c-4.21 0-6.32 5.09-3.34 8.06l64.03 64.03c.93.93 2.07 1.36 3.19 1.39ZM299.59 318.55H464.84c3.76 0 7.36-1.49 10.02-4.15l28.88-28.88c3.69-3.69 3.69-9.67 0-13.36l-26.89-26.88v-.15l-54.04-54.06c-2.66-2.66-6.26-4.15-10.02-4.15H247.05c-3.76 0-7.36 1.49-10.02 4.15l-28.19 28.19c-3.69 3.69-3.69 9.67 0 13.36l81.83 81.83c2.4 2.4 5.57 3.84 8.93 4.1Z" />
</svg>